<svg width="510" height="94" viewBox="0 0 510 94" fill="none" xmlns="http://www.w3.org/2000/svg">
<path d="M5.53001 35.725V26.825H54.46V29.515L19.13 80.225H54.46V89.135H4.27002V86.485L39.6 35.725H5.53001ZM91.65 26.825H100.56L124.59 89.135H115.69L110.17 74.795H82.05L76.53 89.135H67.62L91.65 26.825ZM96.13 38.425L85.44 65.885H106.73L96.13 38.425ZM140.45 26.825H149.35V53.725L179.08 26.825H191.64L157.92 57.375L192.99 89.135H180.43L149.35 61.105V89.135H140.45V26.825ZM206.23 80.225V26.825H215.14V80.225H250.73V26.825H259.64V80.225C259.64 81.445 259.407 82.5983 258.94 83.685C258.48 84.7717 257.843 85.7217 257.03 86.535C256.223 87.3417 255.277 87.9783 254.19 88.445C253.103 88.905 251.95 89.135 250.73 89.135H215.14C213.92 89.135 212.767 88.905 211.68 88.445C210.593 87.9783 209.647 87.3417 208.84 86.535C208.027 85.7217 207.39 84.7717 206.93 83.685C206.463 82.5983 206.23 81.445 206.23 80.225ZM289.7 89.135H280.79V26.825H314.91C324.99 26.825 330.03 31.8783 330.03 41.985V50.855C330.03 60.9617 324.99 66.015 314.91 66.015H289.7V89.135ZM289.7 35.725V57.105H314.43C316.803 57.105 318.513 56.585 319.56 55.545C320.6 54.505 321.12 52.795 321.12 50.415V42.425C321.12 40.045 320.6 38.335 319.56 37.295C318.513 36.2483 316.803 35.725 314.43 35.725H289.7Z" stroke="#ED3B43" stroke-width="8"/>
<path d="M5.53001 35.725V26.825H54.46V29.515L19.13 80.225H54.46V89.135H4.27002V86.485L39.6 35.725H5.53001Z" fill="white"/>
<path d="M91.65 26.825H100.56L124.59 89.135H115.69L110.17 74.795H82.05L76.53 89.135H67.62L91.65 26.825ZM96.13 38.425L85.44 65.885H106.73L96.13 38.425Z" fill="white"/>
<path d="M140.45 26.825H149.35V53.725L179.08 26.825H191.64L157.92 57.375L192.99 89.135H180.43L149.35 61.105V89.135H140.45V26.825Z" fill="white"/>
<path d="M206.23 80.225V26.825H215.14V80.225H250.73V26.825H259.64V80.225C259.64 81.445 259.407 82.5983 258.94 83.685C258.48 84.7717 257.843 85.7217 257.03 86.535C256.223 87.3417 255.277 87.9783 254.19 88.445C253.103 88.905 251.95 89.135 250.73 89.135H215.14C213.92 89.135 212.767 88.905 211.68 88.445C210.593 87.9783 209.647 87.3417 208.84 86.535C208.027 85.7217 207.39 84.7717 206.93 83.685C206.463 82.5983 206.23 81.445 206.23 80.225Z" fill="white"/>
<path d="M289.7 89.135H280.79V26.825H314.91C324.99 26.825 330.03 31.8783 330.03 41.985V50.855C330.03 60.9617 324.99 66.015 314.91 66.015H289.7V89.135ZM289.7 35.725V57.105H314.43C316.803 57.105 318.513 56.585 319.56 55.545C320.6 54.505 321.12 52.795 321.12 50.415V42.425C321.12 40.045 320.6 38.335 319.56 37.295C318.513 36.2483 316.803 35.725 314.43 35.725H289.7Z" fill="white"/>
<path d="M366.31 26.825H375.22L399.25 89.135H390.34L384.82 74.795H356.7L351.18 89.135H342.28L366.31 26.825ZM370.78 38.425L360.09 65.885H381.39L370.78 38.425Z" fill="#ED3B43"/>
<path d="M415.1 26.825H424.01V89.135H415.1V26.825Z" fill="#ED3B43"/>
<path d="M494.735 70.936C495.938 71.874 496.912 73.0737 497.582 74.4441C498.252 75.8145 498.601 77.3195 498.603 78.845C498.603 84.375 494.086 88.892 488.557 88.892C483.027 88.892 478.51 84.376 478.51 78.845C478.51 75.709 479.976 72.795 482.422 70.901L461.914 70.843C463.144 71.7843 464.141 72.9951 464.83 74.3824C465.519 75.7696 465.88 77.2963 465.886 78.845C465.886 84.377 461.372 88.892 455.841 88.892C450.309 88.892 445.794 84.377 445.794 78.845C445.794 75.695 447.316 72.686 449.812 70.809L442.484 70.789L424 7.49H409.886V0.867004H428.94L438.793 34.607H501.683L502.288 30.245L437.763 20.221L438.771 13.701L509.728 24.724L503.305 70.96L494.735 70.936ZM440.726 41.23L447.436 64.206L497.552 64.346L500.764 41.23H440.726ZM455.841 75.422C455.391 75.4206 454.945 75.5081 454.529 75.6796C454.113 75.8511 453.735 76.1031 453.417 76.4213C453.099 76.7394 452.847 77.1173 452.675 77.5333C452.503 77.9492 452.416 78.395 452.417 78.845C452.415 79.2953 452.502 79.7415 452.673 80.158C452.844 80.5744 453.096 80.9528 453.415 81.2711C453.733 81.5895 454.111 81.8415 454.528 82.0126C454.944 82.1837 455.391 82.2705 455.841 82.268C456.291 82.2705 456.737 82.1837 457.154 82.0126C457.57 81.8415 457.949 81.5894 458.267 81.271C458.585 80.9527 458.837 80.5743 459.009 80.1579C459.18 79.7415 459.267 79.2952 459.264 78.845C459.265 78.3951 459.178 77.9494 459.006 77.5335C458.835 77.1176 458.582 76.7398 458.264 76.4216C457.946 76.1035 457.568 75.8514 457.152 75.6799C456.737 75.5083 456.291 75.4207 455.841 75.422ZM488.557 75.422C488.107 75.4189 487.66 75.5054 487.243 75.6763C486.827 75.8473 486.448 76.0993 486.13 76.4178C485.811 76.7362 485.559 77.1148 485.388 77.5315C485.217 77.9481 485.131 78.3946 485.134 78.845C485.134 80.755 486.647 82.268 488.557 82.268C490.467 82.268 491.98 80.755 491.98 78.845C491.983 78.3946 491.897 77.9481 491.726 77.5315C491.555 77.1148 491.303 76.7362 490.984 76.4178C490.666 76.0993 490.287 75.8473 489.871 75.6763C489.454 75.5054 489.007 75.4189 488.557 75.422Z" fill="#ED3B43"/>
</svg>
