<svg width="101" height="89" viewBox="0 0 101 89" fill="none" xmlns="http://www.w3.org/2000/svg">
<path d="M85.735 70.936C86.9382 71.8738 87.9119 73.0735 88.5822 74.4439C89.2524 75.8143 89.6015 77.3195 89.603 78.845C89.603 84.375 85.086 88.892 79.557 88.892C74.027 88.892 69.51 84.376 69.51 78.845C69.51 75.709 70.976 72.795 73.422 70.901L52.914 70.843C54.1437 71.7844 55.1412 72.9953 55.8297 74.3825C56.5183 75.7697 56.8797 77.2963 56.886 78.845C56.886 84.377 52.372 88.892 46.841 88.892C41.309 88.892 36.794 84.377 36.794 78.845C36.794 75.695 38.316 72.686 40.812 70.809L33.484 70.789L15 7.49H0.885986V0.866997H19.94L29.793 34.607H92.683L93.288 30.245L28.763 20.221L29.771 13.701L100.728 24.724L94.305 70.96L85.735 70.936ZM31.726 41.23L38.436 64.206L88.552 64.346L91.764 41.23H31.726ZM46.841 75.422C46.391 75.4205 45.9452 75.5081 45.5292 75.6796C45.1132 75.8511 44.7352 76.1031 44.417 76.4213C44.0988 76.7394 43.8466 77.1173 43.675 77.5333C43.5033 77.9492 43.4157 78.395 43.417 78.845C43.4146 79.2953 43.5016 79.7415 43.6728 80.158C43.844 80.5744 44.0962 80.9528 44.4146 81.2711C44.733 81.5894 45.1115 81.8415 45.528 82.0126C45.9444 82.1837 46.3907 82.2705 46.841 82.268C47.2912 82.2705 47.7375 82.1837 48.1539 82.0126C48.5703 81.8414 48.9487 81.5894 49.2671 81.271C49.5854 80.9527 49.8374 80.5743 50.0086 80.1579C50.1797 79.7415 50.2665 79.2952 50.264 78.845C50.2653 78.3951 50.1777 77.9494 50.0061 77.5335C49.8346 77.1176 49.5825 76.7397 49.2644 76.4216C48.9463 76.1035 48.5684 75.8514 48.1525 75.6799C47.7366 75.5083 47.2909 75.4207 46.841 75.422ZM79.557 75.422C79.1066 75.4189 78.6601 75.5054 78.2435 75.6763C77.8268 75.8473 77.4482 76.0993 77.1298 76.4178C76.8113 76.7362 76.5593 77.1148 76.3883 77.5315C76.2174 77.9481 76.1309 78.3946 76.134 78.845C76.134 80.755 77.647 82.268 79.557 82.268C81.467 82.268 82.98 80.755 82.98 78.845C82.9831 78.3946 82.8966 77.9481 82.7257 77.5315C82.5547 77.1148 82.3027 76.7362 81.9843 76.4178C81.6658 76.0993 81.2872 75.8473 80.8705 75.6763C80.4539 75.5054 80.0074 75.4189 79.557 75.422Z" fill="#ED3B43"/>
</svg>
